<?xml version="1.0" standalone="no"?>
<!DOCTYPE svg PUBLIC "-//W3C//DTD SVG 20010904//EN"
 "http://www.w3.org/TR/2001/REC-SVG-20010904/DTD/svg10.dtd">
<svg version="1.0" xmlns="http://www.w3.org/2000/svg"
 width="533.000000pt" height="533.000000pt" viewBox="0 0 533.000000 533.000000"
 preserveAspectRatio="xMidYMid meet">
<metadata>
Created by potrace 1.14, written by Peter Selinger 2001-2017
</metadata>
<g transform="translate(0.000000,533.000000) scale(0.100000,-0.100000)"
fill="#000000" stroke="none">
<path d="M0 4561 c0 -607 3 -770 13 -774 18 -6 48 4 41 14 -3 5 1 9 9 9 17 0
32 -43 17 -48 -6 -2 -9 -16 -9 -30 1 -17 3 -21 6 -9 2 9 9 15 14 12 5 -4 9 7
9 24 0 47 8 59 38 54 21 -4 24 -2 12 6 -19 13 -1 14 20 1 13 -8 12 -11 -5 -24
-11 -9 -24 -16 -30 -16 -5 0 -11 -22 -13 -48 -3 -52 -6 -49 51 -43 4 1 7 6 7
11 0 6 -11 8 -25 4 -19 -5 -25 -2 -25 9 0 9 8 20 17 26 10 5 18 18 18 28 0 10
9 19 20 21 17 4 18 2 6 -12 -12 -14 -11 -16 8 -16 11 0 21 5 21 10 0 17 38 11
43 -7 3 -10 5 -4 6 13 1 21 -4 31 -14 31 -8 0 -15 -4 -15 -9 0 -5 -11 -1 -25
9 -25 18 -33 43 -15 43 6 0 10 7 10 15 0 19 7 19 25 1 16 -16 10 -27 -11 -19
-8 3 -14 0 -14 -6 0 -12 40 -31 51 -25 4 2 6 22 5 44 -2 35 0 39 17 34 16 -5
18 -2 12 15 -4 12 -2 21 4 21 6 0 11 -11 11 -25 0 -16 -6 -25 -15 -25 -17 0
-19 -18 -5 -40 7 -11 10 -11 10 -2 0 9 5 10 18 3 11 -6 31 -7 48 -2 24 6 28
13 26 34 -1 14 2 28 8 32 5 3 10 -3 10 -14 0 -12 5 -21 11 -21 6 0 8 -7 5 -16
-10 -25 4 -37 20 -17 18 24 17 33 -1 33 -8 0 -15 4 -15 8 0 17 13 21 33 11 14
-8 22 -8 27 1 10 17 22 -3 14 -24 -3 -9 -1 -16 5 -16 6 0 12 9 12 20 1 11 3
25 4 30 1 6 3 21 4 35 1 31 31 23 31 -9 0 -17 -2 -18 -10 -6 -8 13 -10 13 -10
-1 0 -9 -3 -31 -6 -48 -5 -25 -3 -31 10 -31 10 0 15 4 12 9 -7 10 16 61 27 61
5 0 5 10 2 21 -5 13 -3 19 3 15 5 -3 12 1 16 9 3 8 15 15 26 15 11 0 20 5 20
10 0 6 5 10 10 10 6 0 5 -8 -2 -20 -7 -11 -18 -20 -25 -20 -20 0 -15 -30 5
-31 10 0 6 -4 -11 -11 -22 -8 -26 -14 -21 -30 4 -15 3 -18 -7 -13 -9 6 -11 4
-6 -7 3 -9 3 -19 -1 -23 -10 -10 -9 -49 1 -56 14 -10 25 -75 15 -93 -6 -10
-22 -16 -44 -16 -23 0 -33 -4 -28 -11 3 -6 15 -9 25 -6 25 7 33 -7 14 -23 -8
-7 -15 -18 -15 -24 0 -6 5 -3 11 6 6 11 16 15 26 11 12 -5 15 -2 11 9 -3 8 -1
15 5 15 13 0 16 -51 5 -63 -5 -4 -8 -2 -8 4 0 7 -4 12 -9 12 -6 0 -6 -12 1
-30 5 -17 7 -37 4 -45 -3 -8 -1 -15 3 -15 12 0 22 27 15 43 -2 7 9 26 26 42
16 16 30 35 30 42 0 8 7 27 15 42 13 26 13 30 -3 42 -9 7 -14 9 -9 4 9 -10
-21 -45 -39 -45 -7 0 -15 -6 -17 -12 -4 -10 -6 -10 -6 0 -1 7 22 37 49 65 l51
52 -3 -37 c-2 -39 5 -57 17 -39 3 6 1 11 -6 11 -8 0 -5 8 6 20 14 15 21 17 32
9 18 -15 17 -30 -2 -22 -9 3 -15 2 -13 -3 4 -16 -13 -54 -22 -49 -10 6 -24
-18 -34 -57 -6 -26 -5 -27 24 -24 23 3 30 0 26 -10 -3 -8 0 -14 7 -14 22 -1
-38 -40 -61 -40 -13 0 -34 -12 -47 -26 -19 -21 -28 -24 -38 -15 -16 13 -28 5
-20 -15 3 -8 0 -14 -7 -14 -6 0 -22 -13 -35 -29 -14 -16 -39 -31 -57 -35 l-33
-7 24 -13 c22 -12 26 -11 49 15 13 16 29 29 36 29 7 0 18 12 25 27 9 20 15 23
20 14 6 -9 11 -10 15 -2 4 6 12 11 17 11 6 0 8 -4 4 -9 -3 -5 -1 -12 5 -16 13
-8 13 -25 0 -25 -5 0 -10 7 -10 15 0 21 -13 19 -38 -8 -24 -25 -19 -45 6 -25
11 10 17 9 27 -5 15 -21 29 -22 21 -2 -3 9 0 15 10 15 11 0 13 6 9 19 -8 26
20 91 39 91 25 0 46 -12 40 -22 -4 -6 -10 -5 -16 3 -6 10 -8 1 -7 -26 2 -53 1
-65 -10 -65 -5 0 -8 18 -6 40 1 22 -1 40 -6 40 -5 0 -9 -12 -9 -27 0 -16 -3
-38 -6 -49 -4 -15 0 -23 12 -28 17 -7 46 17 93 77 12 15 12 17 -3 11 -9 -3
-16 -1 -16 5 0 6 6 11 13 11 17 0 57 91 57 130 0 19 8 34 23 45 18 13 19 17 8
24 -12 8 -11 16 7 54 12 25 26 48 32 52 14 9 13 71 -2 95 -10 15 -10 22 0 32
9 9 12 9 12 -1 0 -7 5 -9 10 -6 16 10 12 35 -4 29 -11 -4 -13 0 -9 15 4 18 7
18 19 6 20 -20 44 -8 45 24 1 23 2 21 9 -9 5 -19 6 -38 4 -42 -3 -5 -1 -8 5
-8 16 0 25 48 13 63 -8 10 -6 21 7 44 15 24 28 31 62 35 24 3 53 9 64 14 14 5
11 -2 -12 -26 -18 -19 -33 -37 -33 -42 0 -4 -7 -8 -15 -8 -8 0 -15 -4 -15 -10
0 -17 21 -11 41 13 22 27 25 11 4 -21 -10 -13 -15 -38 -13 -63 1 -29 -3 -45
-14 -53 -12 -9 -19 -34 -22 -82 -3 -38 -13 -94 -23 -124 -18 -62 -20 -72 -26
-150 -3 -30 -12 -75 -20 -100 -9 -25 -21 -73 -28 -107 -7 -34 -16 -60 -20 -58
-7 5 -22 -105 -15 -113 3 -2 -2 -11 -10 -19 -8 -8 -12 -19 -8 -24 3 -5 26 11
52 36 26 24 49 40 51 34 1 -6 -4 -18 -13 -28 -10 -10 -21 -35 -27 -55 -5 -20
-14 -36 -19 -36 -6 0 -10 -4 -10 -10 0 -23 20 -7 53 43 38 55 47 86 51 179 3
58 15 92 17 47 1 -13 2 -28 4 -34 1 -5 3 -17 5 -25 1 -8 6 1 9 20 7 35 -21
149 -38 160 -13 7 -18 59 -6 59 6 1 10 -9 10 -21 0 -11 10 -28 23 -36 20 -13
22 -13 22 1 0 8 -5 17 -10 19 -12 4 -21 37 -26 93 -3 40 -3 40 5 7 5 -19 14
-39 20 -45 14 -14 14 -2 0 24 -8 16 -7 23 7 33 9 7 14 18 10 24 -11 18 3 35
19 22 9 -8 14 -3 19 21 3 17 3 36 -1 43 -13 20 -14 56 -2 56 6 0 9 6 6 13 -3
7 2 22 10 32 15 20 15 20 10 -2 -3 -14 2 -28 14 -39 10 -9 19 -12 19 -6 0 6
12 0 26 -13 23 -22 54 -24 54 -5 0 17 -12 40 -22 40 -5 0 -6 -4 -3 -10 3 -5 2
-10 -3 -10 -5 0 -9 13 -8 30 1 36 3 37 28 4 23 -29 35 -26 18 5 -6 12 -7 21
-1 21 11 0 52 -85 76 -157 10 -29 19 -53 21 -53 2 0 2 19 -1 43 -4 31 -3 37 4
22 5 -11 10 -32 10 -47 1 -14 15 -57 33 -95 24 -51 31 -82 31 -126 l0 -58 19
28 c10 15 18 33 18 39 0 5 12 34 26 64 30 62 54 166 53 230 0 25 -3 39 -6 32
-9 -22 -23 -1 -23 35 0 33 -54 170 -72 183 -9 7 -40 92 -35 97 5 4 67 -123 67
-135 0 -4 8 -15 19 -24 17 -15 18 -14 13 31 -5 42 -4 45 12 32 9 -8 15 -19 13
-25 -2 -6 0 -20 4 -31 5 -12 6 17 3 68 -5 76 -3 92 14 122 12 19 18 43 15 54
-4 15 -1 21 10 21 9 0 29 16 44 35 15 19 33 35 38 35 17 0 40 34 39 57 -1 19
1 20 18 10 17 -10 23 -7 49 25 19 24 36 35 45 31 9 -3 21 3 29 14 10 14 22 19
37 16 14 -3 33 4 48 17 17 15 32 19 51 15 19 -4 34 1 55 18 42 34 89 50 129
44 27 -4 33 -3 28 9 -4 10 0 12 11 8 9 -3 14 -10 11 -14 -3 -4 2 -13 11 -21
12 -10 18 -10 30 3 18 17 63 12 71 -8 3 -8 12 -14 20 -14 8 0 11 -4 8 -10 -3
-5 -1 -10 5 -10 8 0 10 9 6 26 -6 22 -5 24 12 15 11 -6 25 -24 32 -41 12 -30
48 -43 52 -17 0 6 2 17 3 22 2 6 3 16 4 23 2 18 76 15 91 -3 10 -12 10 -15 -4
-15 -9 0 -16 -4 -16 -10 0 -5 7 -6 17 -3 11 4 14 3 9 -5 -4 -7 -2 -12 3 -12 6
0 11 5 11 11 0 8 6 7 17 -2 9 -8 19 -13 22 -11 3 1 7 -6 9 -18 2 -11 8 -20 14
-20 6 0 8 13 6 30 -6 43 14 38 51 -12 17 -23 31 -38 31 -34 0 5 10 -4 22 -20
13 -16 29 -34 37 -40 10 -8 14 -25 13 -48 -2 -27 1 -36 13 -36 9 0 14 -4 11
-9 -3 -4 1 -16 8 -27 8 -10 12 -24 9 -30 -2 -7 5 -18 16 -26 25 -18 71 -84 64
-92 -3 -3 2 -8 11 -12 15 -6 15 -8 1 -31 -11 -16 -13 -28 -7 -36 5 -7 13 -28
17 -47 4 -19 16 -50 26 -68 10 -18 19 -48 19 -66 0 -17 5 -37 10 -42 6 -6 12
-48 14 -95 3 -66 7 -84 18 -83 8 1 20 -7 26 -16 9 -15 6 -18 -30 -23 -55 -7
-155 -57 -164 -81 -6 -18 -8 -18 -18 -4 -9 12 -16 14 -30 6 -10 -5 -35 -8 -56
-6 -68 6 -70 -5 -71 -344 -1 -161 -1 -319 0 -351 1 -38 -4 -65 -15 -82 -9 -14
-13 -25 -9 -25 5 0 -2 -9 -14 -19 -21 -18 -21 -20 -4 -31 15 -9 13 -10 -14 -6
-26 4 -33 2 -39 -16 -4 -15 -1 -26 12 -35 16 -12 19 -12 22 1 4 19 -1 19 55 0
57 -19 81 -51 63 -85 -10 -20 -22 -25 -71 -31 -33 -3 -95 -5 -139 -3 -70 3
-79 1 -83 -16 -6 -22 -33 -26 -33 -4 0 20 -7 19 -33 -5 -16 -16 -29 -19 -52
-14 -16 4 -50 8 -75 8 -25 1 -50 5 -56 8 -6 4 -38 0 -70 -8 -33 -9 -88 -24
-124 -33 -75 -19 -89 -41 -41 -65 16 -9 47 -32 68 -51 21 -19 41 -35 46 -35
14 0 7 18 -9 24 -9 4 -14 9 -11 12 3 3 19 -1 36 -9 17 -8 39 -13 50 -10 10 2
22 0 25 -6 12 -19 24 -12 19 9 -4 14 -11 19 -23 15 -12 -4 -22 1 -28 12 -6 10
-21 18 -34 18 -19 0 -23 5 -23 30 0 21 5 30 16 30 9 0 24 7 33 14 12 11 20 11
28 3 8 -8 14 -7 22 4 9 11 32 15 99 15 48 0 91 -2 96 -6 5 -3 38 -10 73 -15
148 -25 168 -29 195 -42 25 -12 28 -18 28 -65 -1 -68 -33 -108 -80 -99 -16 4
-34 11 -39 16 -16 16 -7 80 15 112 22 30 16 36 -13 14 -11 -8 -18 -27 -18 -47
0 -68 -8 -79 -56 -79 -40 0 -60 -13 -33 -22 19 -6 -9 -79 -28 -76 -9 2 -18 -2
-20 -8 -2 -8 14 -15 44 -19 59 -8 82 -19 58 -29 -9 -3 -13 -10 -10 -16 4 -6
10 -8 14 -6 14 9 145 -14 153 -27 4 -6 8 -22 8 -35 0 -24 -34 -44 -80 -46 -22
-1 -25 -5 -22 -30 2 -16 13 -41 23 -56 11 -14 21 -37 21 -51 1 -13 5 -28 8
-34 7 -9 22 -58 25 -80 1 -5 -2 -15 -6 -20 -5 -6 -8 -20 -8 -30 -1 -57 -18
-125 -32 -125 -5 0 -9 -7 -9 -15 0 -21 -40 -41 -50 -25 -6 9 -12 9 -30 0 -13
-7 -64 -12 -124 -12 -93 0 -107 3 -183 35 -46 19 -97 47 -115 62 -49 41 -223
263 -253 322 -18 35 -31 50 -41 46 -8 -3 -23 6 -35 21 -11 14 -24 26 -29 26
-5 0 -19 10 -32 23 -13 12 -32 29 -43 37 -12 8 -36 37 -55 63 -19 27 -45 50
-59 54 -31 8 -46 23 -96 93 -21 30 -44 59 -51 63 -36 21 -56 106 -74 312 -6
66 -15 146 -22 178 -9 47 -8 61 2 67 10 6 11 30 6 101 -3 52 -2 117 2 146 7
39 6 53 -4 57 -24 9 -37 -24 -46 -117 -5 -50 -11 -103 -12 -117 -2 -14 -4 -47
-5 -75 -2 -40 -5 -45 -10 -25 -7 22 -9 18 -19 -30 -10 -45 -9 -65 3 -109 7
-30 19 -59 24 -64 18 -18 12 -31 -6 -16 -15 13 -15 12 -5 -8 7 -12 14 -39 16
-60 l4 -38 -13 30 c-7 17 -17 29 -22 29 -10 -2 -42 110 -43 151 0 42 -11 76
-21 69 -5 -3 -9 -14 -9 -26 0 -11 -6 -32 -14 -46 -8 -15 -17 -35 -20 -45 -3
-9 -17 -22 -31 -27 -14 -5 -34 -23 -43 -40 -18 -32 -39 -42 -27 -13 37 87 46
122 42 150 -4 21 -1 33 8 37 16 6 42 91 50 166 7 64 -9 50 -20 -17 -4 -24 -11
-46 -17 -49 -6 -4 -8 1 -5 12 3 11 11 39 17 64 7 25 19 58 27 74 10 20 11 26
2 20 -9 -5 -10 -2 -5 11 5 15 4 16 -9 5 -8 -7 -15 -22 -15 -34 0 -12 -9 -39
-20 -61 -11 -22 -20 -47 -20 -56 0 -9 -8 -23 -17 -30 -15 -13 -16 -11 -10 19
4 18 3 31 -2 28 -9 -6 -21 -78 -27 -154 -2 -23 -10 -49 -18 -57 -16 -16 -56
-117 -56 -140 0 -8 -5 -15 -11 -15 -7 0 -8 7 -4 18 22 51 44 262 25 232 -8
-13 -10 -12 -10 3 0 10 -7 20 -15 23 -8 4 -15 16 -15 27 0 28 -13 12 -29 -37
-19 -57 -16 -133 8 -189 24 -57 27 -73 5 -37 -15 25 -15 25 -8 -10 4 -19 15
-54 26 -79 10 -24 17 -49 15 -54 -6 -19 -68 148 -79 215 -7 40 -17 68 -24 68
-19 0 -22 -22 -9 -67 8 -28 9 -43 3 -43 -6 0 -8 -15 -6 -35 4 -32 -6 -49 -14
-25 -2 6 -9 6 -18 0 -13 -8 -11 -14 12 -35 28 -26 36 -45 19 -45 -5 0 -11 7
-15 15 -3 8 -10 15 -17 15 -6 0 -8 -7 -5 -16 3 -8 2 -12 -4 -9 -6 3 -10 14
-10 24 0 10 -9 30 -21 45 -14 18 -21 41 -21 72 0 25 2 48 5 50 2 2 16 -13 31
-33 30 -41 30 -41 -2 30 -22 49 -29 121 -13 131 5 4 12 0 14 -6 3 -8 6 -6 6 5
1 9 -5 17 -12 17 -19 0 -41 93 -28 118 6 11 8 22 5 25 -3 3 4 26 16 51 11 26
18 52 14 58 -5 7 -2 8 7 3 11 -7 12 -6 3 6 -14 19 -13 25 19 90 16 33 25 64
21 75 -4 14 -3 15 4 6 12 -17 32 35 32 82 0 18 5 37 12 44 6 6 9 14 6 18 -10
9 -29 -33 -32 -72 -1 -22 -10 -40 -20 -46 -9 -5 -24 -27 -32 -49 -9 -21 -20
-39 -25 -39 -10 0 -51 -65 -57 -90 -12 -52 -13 -70 -3 -87 9 -15 10 -13 11 15
0 23 5 32 16 32 12 0 15 -6 11 -22 -4 -13 -9 -42 -13 -65 -3 -24 -10 -41 -13
-38 -4 2 -8 -12 -8 -32 -2 -60 -14 -123 -23 -123 -6 0 -7 -19 -4 -44 4 -27 2
-46 -5 -50 -7 -5 -11 5 -11 28 0 25 -4 36 -15 36 -15 0 -19 -10 -15 -44 1 -10
-4 -23 -12 -27 -11 -7 -10 -11 2 -19 13 -8 12 -10 -4 -10 -14 0 -17 6 -14 25
7 32 -10 33 -22 1 -17 -45 -27 -36 -24 21 1 31 9 64 17 73 19 22 33 95 17 85
-9 -5 -10 -1 -5 16 4 13 7 26 7 29 0 21 -4 30 -13 30 -8 0 -8 -5 1 -15 8 -9 8
-15 2 -15 -6 0 -13 -8 -15 -17 -3 -12 -5 -10 -6 7 -1 19 -3 22 -10 10 -6 -8
-7 -18 -4 -24 4 -5 1 -6 -7 -1 -9 6 -11 0 -5 -23 5 -23 2 -33 -12 -44 -19 -13
-30 -64 -12 -53 5 4 10 3 10 -2 8 -58 8 -77 -1 -63 -7 11 -10 6 -10 -20 0 -26
3 -31 10 -20 5 8 10 10 10 4 0 -20 -35 -45 -47 -33 -7 7 -9 3 -6 -15 3 -15 1
-26 -6 -26 -6 0 -12 15 -12 33 l-1 32 -7 -30 c-6 -31 -28 -33 -23 -2 5 25 -34
22 -41 -3 -3 -11 -17 -24 -31 -30 -17 -6 -26 -17 -26 -31 0 -21 -1 -21 -25 5
l-25 27 20 39 c30 59 24 110 -7 61 -10 -15 -10 -21 0 -24 9 -4 9 -6 0 -6 -7
-1 -13 -9 -13 -18 0 -10 -5 -25 -11 -33 -7 -11 -8 -1 -3 35 4 28 11 55 16 62
6 7 4 13 -4 16 -10 4 -10 8 2 16 13 10 12 13 -5 27 -20 15 -20 15 2 20 14 4
20 11 16 20 -3 8 3 24 13 36 17 19 17 21 2 15 -10 -4 -18 -2 -18 4 0 6 -5 7
-11 3 -8 -5 -8 -9 1 -14 9 -5 9 -9 1 -14 -6 -4 -8 -12 -5 -18 4 -7 2 -8 -5 -4
-6 4 -9 12 -6 17 4 5 2 9 -4 9 -15 0 -23 -18 -11 -25 8 -5 6 -11 -4 -18 -18
-14 -66 -108 -66 -129 0 -8 -6 -15 -14 -15 -8 0 -12 6 -9 13 2 6 0 15 -6 19
-6 3 -10 18 -10 33 2 24 2 24 6 5 2 -13 9 -23 15 -23 6 0 8 9 5 20 -6 22 8 28
16 8 3 -8 6 -6 6 5 1 9 -3 17 -8 17 -5 0 -13 9 -16 20 -4 12 -15 20 -28 19
-12 0 -16 -3 -9 -6 6 -2 12 -12 12 -20 0 -12 -3 -13 -13 -4 -8 6 -17 8 -20 4
-4 -3 -7 0 -8 8 -1 8 -4 4 -7 -8 -6 -18 -10 -20 -22 -12 -11 8 -12 12 -2 16 6
2 12 9 12 14 0 6 -4 8 -9 5 -16 -10 -50 28 -55 62 -2 19 -8 37 -12 40 -4 4 -4
-13 -1 -37 3 -24 11 -47 18 -52 10 -6 10 -9 -4 -15 -14 -5 -17 -19 -17 -83 l1
-76 20 24 c11 13 22 21 26 17 4 -3 -6 -19 -20 -34 l-27 -28 0 -1242 0 -1242
1525 0 1525 0 16 25 c13 20 14 30 5 57 -10 28 -9 34 5 43 43 24 64 55 64 90 0
25 5 38 18 42 9 4 30 17 45 30 16 13 34 23 42 23 7 0 18 7 25 15 7 8 24 15 39
15 20 0 23 2 11 10 -12 8 -11 10 7 10 12 0 24 4 28 10 3 5 12 7 20 3 11 -3 15
2 16 18 0 19 2 21 7 7 7 -16 10 -16 36 -3 15 8 34 15 41 15 17 0 27 28 13 36
-7 4 -8 3 -4 -4 6 -11 -27 -18 -56 -13 -5 0 -8 -6 -8 -15 0 -14 -1 -14 -16 0
-8 9 -20 16 -25 16 -5 0 -9 8 -10 18 0 10 -3 12 -6 5 -2 -7 -9 -13 -14 -13
-15 0 1 27 25 39 35 19 49 47 34 72 -11 18 -11 23 0 26 7 3 25 15 40 28 23 20
25 26 16 51 -9 26 -7 32 19 55 24 20 30 34 31 68 1 40 4 44 40 62 22 10 47 26
56 34 23 21 100 36 190 39 41 1 81 6 89 10 10 7 12 4 6 -13 -14 -44 5 -18 48
67 24 48 52 111 62 141 11 33 20 49 25 41 6 -9 9 -9 13 1 3 8 6 0 6 -18 1 -17
-5 -34 -11 -37 -9 -3 -7 -9 6 -20 18 -14 21 -14 33 4 8 11 27 27 43 35 30 15
32 45 4 45 -8 0 -14 7 -14 16 0 9 -13 21 -30 27 -40 15 -38 27 5 27 24 0 35
-5 35 -15 0 -10 10 -15 29 -15 16 0 36 -6 43 -12 20 -19 121 -68 139 -68 9 0
24 -9 34 -20 10 -11 27 -22 39 -26 11 -4 80 -34 151 -68 180 -86 203 -96 223
-95 9 0 4 5 -13 11 -16 6 -37 16 -45 23 -8 7 -26 16 -40 20 -14 4 -95 44 -180
89 -195 103 -358 182 -435 211 -33 12 -82 33 -108 45 -74 33 -244 90 -272 90
-42 0 -72 17 -79 45 -9 37 -3 40 25 10 13 -13 32 -25 42 -25 21 0 22 7 1 28
-23 22 -4 26 39 8 25 -10 37 -11 39 -4 2 6 12 12 21 14 9 1 15 -2 12 -6 -3 -5
-1 -11 5 -15 15 -9 60 24 53 41 -13 35 54 73 90 49 13 -8 40 -17 62 -20 22 -3
46 -8 53 -10 6 -2 12 2 12 10 0 7 -12 16 -27 20 -41 9 -166 79 -162 90 2 6 8
8 14 7 5 -2 20 -6 32 -8 12 -2 35 -9 50 -15 37 -14 33 -10 -72 59 -89 58 -133
97 -123 107 3 3 24 -10 48 -30 23 -19 46 -35 52 -35 5 0 22 -9 37 -19 36 -26
103 -39 96 -19 -3 8 3 22 14 33 17 14 23 15 36 5 8 -7 13 -16 10 -20 -3 -5 -1
-11 5 -15 10 -6 14 20 11 58 -3 21 17 23 25 2 4 -8 14 -15 23 -15 10 0 26 -6
36 -14 19 -14 19 -15 -5 -35 -14 -11 -35 -24 -47 -27 -27 -7 -28 -13 -6 -29
20 -15 43 -9 43 10 0 16 27 38 33 28 10 -16 -44 -75 -64 -70 -16 4 -29 -10
-29 -33 0 -5 9 -14 20 -20 21 -11 41 0 89 52 24 26 26 26 59 12 32 -13 38 -13
69 6 l33 19 88 -51 c98 -57 122 -76 122 -94 0 -21 -58 -55 -108 -64 l-47 -8
41 -1 c23 0 62 8 88 19 57 26 69 58 37 100 -11 16 -21 33 -21 39 0 5 -9 7 -20
4 -12 -3 -20 0 -20 7 0 6 -10 10 -23 8 -13 -1 -45 12 -75 31 -50 32 -52 35
-38 55 17 27 28 180 13 195 -22 22 2 21 35 -1 20 -14 49 -24 69 -23 47 0 72
47 65 124 -5 66 4 57 35 -34 34 -102 34 -220 -2 -293 -15 -29 -21 -51 -15 -49
6 2 22 25 35 51 21 40 25 64 27 149 2 73 -2 109 -12 129 -8 16 -18 49 -23 74
-10 50 -22 36 124 142 42 30 85 94 85 125 0 8 -17 29 -39 49 -23 20 -42 48
-46 67 -4 20 -16 36 -30 43 -20 9 -22 13 -10 25 8 7 12 20 9 28 -4 8 1 18 10
21 17 7 22 24 7 24 -6 0 -20 -18 -32 -40 -13 -22 -28 -40 -35 -40 -18 0 -25
27 -13 56 12 32 8 37 -31 37 -46 0 -19 21 28 22 33 1 46 8 80 45 36 39 41 49
36 78 -6 30 -4 32 22 33 27 0 27 1 8 9 -12 5 -25 13 -29 19 -12 21 -25 11 -21
-16 5 -27 4 -27 -10 -8 -20 27 -14 48 15 55 14 3 26 11 28 17 3 9 -5 9 -31 1
-42 -13 -44 -12 -52 30 -4 22 -3 32 5 32 7 0 10 -4 7 -9 -3 -5 1 -14 9 -21 13
-11 15 -8 15 14 0 15 -7 29 -15 32 -8 4 -15 15 -15 25 0 19 -24 89 -41 122 -6
11 -6 17 1 17 6 0 10 6 8 13 -3 12 3 17 23 17 7 0 8 -11 4 -29 -3 -16 -2 -32
4 -35 6 -4 8 -13 4 -21 -3 -8 -1 -15 5 -15 6 0 8 -8 5 -19 -3 -10 0 -21 5 -25
17 -10 24 45 8 63 -18 20 -18 22 -1 70 10 30 11 41 2 45 -7 2 -4 5 6 5 19 1
24 27 5 33 -13 5 -19 48 -7 48 14 0 39 -32 39 -50 0 -10 5 -22 10 -25 18 -11
10 -26 -12 -23 -30 4 -31 -23 -1 -37 16 -8 19 -15 12 -26 -12 -19 -11 -39 2
-39 6 0 9 6 6 14 -3 8 -1 16 6 19 6 2 12 17 13 33 1 16 6 28 11 27 12 -2 4 45
-8 53 -22 13 -7 25 22 19 45 -10 57 13 19 36 -22 14 -28 24 -26 49 3 36 26 57
39 35 4 -8 17 -15 27 -15 11 0 20 -5 20 -11 0 -7 11 -8 30 -4 21 5 30 3 31 -7
0 -7 4 -3 9 10 12 28 60 32 60 4 0 -25 41 -23 57 3 6 11 15 20 20 20 4 0 13 4
20 8 7 5 10 1 6 -11 -5 -22 13 -72 27 -72 5 0 7 13 3 30 -4 25 -3 29 10 24 10
-3 18 2 22 16 8 25 30 21 30 -6 0 -10 3 -21 7 -24 10 -7 -2 -50 -13 -50 -5 0
-9 -4 -9 -10 0 -5 7 -10 15 -10 8 0 15 8 15 18 0 11 8 28 18 39 13 16 21 18
34 9 9 -5 21 -7 25 -2 4 4 9 478 11 1052 l2 1044 -2665 0 -2665 0 0 -769z
m1945 229 c3 -6 -1 -7 -9 -4 -18 7 -21 14 -7 14 6 0 13 -4 16 -10z m-199 -116
c-3 -9 -12 -14 -19 -11 -19 7 -71 -33 -58 -46 6 -6 -2 -18 -26 -34 -47 -32
-62 -25 -29 14 28 34 32 43 15 43 -6 0 -25 -17 -42 -37 -18 -20 -44 -50 -59
-66 -15 -15 -35 -42 -45 -60 -10 -18 -23 -39 -30 -48 -7 -8 -16 -40 -20 -70
-7 -42 -12 -54 -26 -54 -10 0 -22 -7 -27 -15 -14 -22 -12 -5 6 51 9 27 20 46
25 43 5 -3 9 1 9 9 0 23 26 67 35 59 5 -4 5 -1 1 5 -8 14 31 73 48 74 6 0 28
22 48 49 37 49 69 76 97 82 8 2 28 18 44 36 29 32 30 32 44 12 8 -12 12 -28 9
-36z m24 44 c0 -9 4 -8 10 2 8 13 10 12 10 -2 0 -22 -13 -23 -30 -3 -9 10 -9
15 -1 15 6 0 11 -6 11 -12z m-378 -100 c-7 -7 -12 -8 -12 -2 0 14 12 26 19 19
2 -3 -1 -11 -7 -17z m1721 -86 c29 -30 35 -42 25 -47 -7 -5 -10 -5 -6 -1 6 8
-59 71 -112 109 -21 15 -19 14 15 -2 22 -11 57 -37 78 -59z m-1903 2 c-10 -27
-19 -41 -20 -31 0 21 28 92 35 85 2 -2 -4 -26 -15 -54z m238 24 c-8 -12 -25
-29 -38 -37 -22 -15 -23 -15 -11 7 6 12 9 22 6 22 -4 0 -3 5 1 11 4 8 9 7 15
-2 8 -11 11 -11 20 4 5 9 13 17 16 17 3 0 -1 -10 -9 -22z m142 -12 c0 -3 -4
-8 -10 -11 -5 -3 -10 -1 -10 4 0 6 5 11 10 11 6 0 10 -2 10 -4z m-207 -66 c-3
-11 -7 -20 -9 -20 -2 0 -4 9 -4 20 0 11 4 20 9 20 5 0 7 -9 4 -20z m-207 -36
c-4 -9 -9 -15 -11 -12 -3 3 -3 13 1 22 4 9 9 15 11 12 3 -3 3 -13 -1 -22z
m1695 5 c27 -12 48 -24 45 -26 -2 -3 -15 1 -27 8 -13 7 -46 18 -74 24 -37 10
-43 13 -22 14 16 1 51 -9 78 -20z m-1954 -21 c-3 -7 -5 -2 -5 12 0 14 2 19 5
13 2 -7 2 -19 0 -25z m356 2 c-3 -11 -9 -20 -14 -20 -11 0 -11 3 -3 24 9 23
23 20 17 -4z m54 -8 c-10 -10 -17 -24 -17 -30 0 -7 -8 -12 -19 -12 -23 0 -36
-16 -45 -54 -4 -16 -20 -45 -37 -65 -16 -20 -29 -41 -29 -48 0 -7 -7 -13 -15
-13 -8 0 -15 -7 -15 -15 0 -24 37 -18 43 7 4 12 9 19 13 15 4 -3 -2 -18 -12
-33 -17 -24 -37 -54 -41 -62 0 -2 -16 -6 -35 -9 -18 -2 -34 -9 -36 -14 -2 -5
-8 -9 -13 -9 -12 0 10 50 34 77 11 12 24 20 28 17 5 -3 6 2 3 10 -4 9 8 29 29
51 20 20 34 42 31 49 -6 14 34 67 95 125 42 40 72 50 38 13z m1875 -17 c11
-20 11 -20 -11 -1 -11 11 -21 26 -21 35 0 14 2 14 10 1 6 -8 16 -24 22 -35z
m-1852 -25 c-8 -42 -20 -65 -20 -38 0 29 12 78 20 78 4 0 4 -18 0 -40z m-260
16 c0 -2 -7 -9 -15 -16 -13 -11 -14 -10 -9 4 5 14 24 23 24 12z m-50 -75 c0
-5 -7 -11 -15 -15 -15 -5 -20 5 -8 17 9 10 23 9 23 -2z m367 -116 c2 -96 35
-240 63 -270 20 -23 37 -85 22 -85 -5 0 -13 15 -17 33 -6 31 -7 31 -16 9 -5
-13 -6 -29 -2 -35 7 -12 22 -87 17 -87 -2 0 -12 21 -24 47 -11 25 -23 44 -26
40 -3 -3 0 -15 6 -27 6 -12 9 -24 6 -27 -5 -5 -36 62 -36 79 0 5 -4 7 -9 3 -6
-3 -3 -21 6 -43 9 -20 19 -50 24 -66 l8 -29 -24 23 c-42 39 -62 98 -68 195 -3
50 -2 83 1 75 3 -8 11 -19 18 -23 8 -4 14 -19 14 -32 0 -26 39 -57 41 -33 0 7
5 4 10 -7 7 -16 8 -14 4 10 -19 114 -27 148 -36 172 -13 34 -2 164 14 163 1 0
3 -38 4 -85z m-289 53 c-17 -29 -60 -70 -66 -63 -5 5 67 85 75 85 2 0 -2 -10
-9 -22z m-307 -27 c-15 -26 -14 -38 1 -23 20 20 32 13 13 -8 -24 -27 -35 -25
-35 6 0 30 21 75 27 57 3 -7 0 -21 -6 -32z m204 3 c-16 -8 -37 -24 -46 -36
-15 -19 -16 -19 -23 -3 -3 10 -5 18 -4 19 39 20 76 35 88 35 8 1 2 -6 -15 -15z
m-100 -14 c-3 -5 -11 -10 -16 -10 -6 0 -7 5 -4 10 3 6 11 10 16 10 6 0 7 -4 4
-10z m445 -50 c-7 -53 -8 -53 -9 -13 -1 38 7 78 14 71 2 -2 0 -28 -5 -58z
m-256 16 c-3 -9 -10 -16 -15 -16 -5 0 -4 9 3 20 14 22 21 20 12 -4z m-194 10
c0 -2 -7 -9 -15 -16 -13 -11 -14 -10 -9 4 5 14 24 23 24 12z m81 -42 c-6 -16
-10 -21 -10 -11 -1 10 -5 16 -10 13 -5 -3 -7 -15 -4 -26 3 -10 -4 -32 -14 -47
-11 -15 -25 -42 -32 -60 -12 -29 -51 -75 -51 -59 0 12 31 68 63 115 24 35 27
45 16 52 -11 8 -8 15 16 34 16 13 30 23 32 22 1 -2 -2 -16 -6 -33z m676 30
c-3 -3 -12 -4 -19 -1 -8 3 -5 6 6 6 11 1 17 -2 13 -5z m-230 -36 c-3 -8 -6 -5
-6 6 -1 11 2 17 5 13 3 -3 4 -12 1 -19z m-367 8 c0 -2 -7 -9 -15 -16 -12 -10
-15 -10 -15 4 0 9 7 16 15 16 8 0 15 -2 15 -4z m-190 -32 c0 -8 -5 -12 -10 -9
-6 4 -8 11 -5 16 9 14 15 11 15 -7z m313 -9 c-3 -9 -8 -14 -10 -11 -3 3 -2 9
2 15 9 16 15 13 8 -4z m254 -32 c-3 -10 -5 -2 -5 17 0 19 2 27 5 18 2 -10 2
-26 0 -35z m-437 2 c0 -8 -4 -15 -10 -15 -5 0 -7 7 -4 15 4 8 8 15 10 15 2 0
4 -7 4 -15z m-20 -34 c0 -5 -7 -11 -15 -15 -15 -5 -20 5 -8 17 9 10 23 9 23
-2z m17 -23 c-3 -8 -6 -5 -6 6 -1 11 2 17 5 13 3 -3 4 -12 1 -19z m-430 6 c-3
-3 -12 -4 -19 -1 -8 3 -5 6 6 6 11 1 17 -2 13 -5z m231 -44 c10 -17 10 -25 -2
-48 -9 -15 -16 -22 -16 -17 0 6 -4 29 -9 52 -9 44 3 50 27 13z m38 -2 c-16
-22 -16 -22 -16 -1 0 12 6 23 13 26 19 7 20 0 3 -25z m110 5 c-10 -10 -19 5
-10 18 6 11 8 11 12 0 2 -7 1 -15 -2 -18z m-196 -3 c0 -5 -5 -10 -11 -10 -5 0
-7 5 -4 10 3 6 8 10 11 10 2 0 4 -4 4 -10z m-240 -30 c0 -5 -4 -10 -10 -10 -5
0 -10 5 -10 10 0 6 5 10 10 10 6 0 10 -4 10 -10z m180 -15 c0 -8 -4 -15 -10
-15 -5 0 -10 7 -10 15 0 8 5 15 10 15 6 0 10 -7 10 -15z m203 2 c3 -8 -1 -14
-9 -14 -15 0 -18 9 -7 20 9 9 10 9 16 -6z m-383 -23 c0 -3 -10 -2 -21 1 -14 5
-19 3 -15 -3 3 -6 2 -13 -4 -17 -11 -7 -13 5 -4 29 5 12 10 13 25 5 10 -5 19
-12 19 -15z m230 16 c0 -5 -4 -10 -10 -10 -5 0 -10 5 -10 10 0 6 5 10 10 10 6
0 10 -4 10 -10z m114 -5 c-4 -8 -1 -15 5 -15 17 0 13 -30 -5 -37 -8 -3 -13
-12 -10 -19 3 -8 1 -14 -4 -14 -5 0 -14 17 -19 38 -13 46 -14 62 -1 42 8 -12
10 -12 16 3 3 9 10 17 15 17 4 0 6 -7 3 -15z m-410 -10 c-6 -16 -24 -21 -24
-7 0 11 11 22 21 22 5 0 6 -7 3 -15z m-94 -5 c0 -5 -5 -10 -11 -10 -5 0 -7 5
-4 10 3 6 8 10 11 10 2 0 4 -4 4 -10z m418 -37 c-12 -14 -28 -8 -28 11 0 6 6
18 12 24 10 10 14 9 19 -5 4 -10 2 -24 -3 -30z m-674 -2 c-4 -17 -9 -30 -11
-27 -3 2 -2 19 2 36 9 41 17 33 9 -9z m33 17 c-3 -8 -6 -5 -6 6 -1 11 2 17 5
13 3 -3 4 -12 1 -19z m1023 13 c0 -6 -4 -13 -10 -16 -5 -3 -10 1 -10 9 0 9 5
16 10 16 6 0 10 -4 10 -9z m-959 -29 c-5 -10 -17 -25 -26 -32 -13 -11 -14 -10
-8 6 9 23 25 43 36 44 4 0 3 -8 -2 -18z m535 1 c16 -21 18 -53 4 -53 -5 0 -10
7 -10 15 0 8 -4 15 -10 15 -5 0 -10 9 -10 20 0 25 9 25 26 3z m-52 -48 c-5
-13 -4 -16 4 -11 7 4 12 1 12 -8 0 -9 -5 -16 -11 -16 -5 0 -8 -4 -4 -9 3 -6
-8 -24 -25 -41 l-30 -31 0 30 c0 28 24 50 34 30 2 -5 3 -4 2 3 -2 7 -10 12
-19 10 -8 -1 -18 2 -22 8 -3 5 -2 10 3 10 6 0 9 8 8 18 0 9 5 16 12 14 10 -2
10 2 3 17 -14 26 -3 33 20 12 13 -12 17 -24 13 -36z m-534 25 c-24 -15 -37
-11 -16 5 11 8 22 12 25 9 3 -3 -1 -9 -9 -14z m650 -4 c-5 -13 -7 -26 -5 -28
2 -2 -5 -4 -15 -4 -17 0 -18 2 -5 16 8 9 15 22 15 28 0 7 4 12 10 12 6 0 6 -9
0 -24z m70 -25 c0 -5 -11 -16 -26 -25 -14 -10 -29 -27 -33 -38 -4 -12 -10 -17
-14 -11 -8 13 40 83 58 83 8 0 15 -4 15 -9z m650 -11 c0 -11 -2 -20 -4 -20 -2
0 -6 9 -9 20 -3 11 -1 20 4 20 5 0 9 -9 9 -20z m-737 -50 c-3 -11 -9 -17 -14
-14 -5 3 -6 10 -3 16 5 8 1 9 -10 5 -10 -4 -15 -3 -11 3 3 6 14 10 25 10 13 0
17 -5 13 -20z m317 16 c0 -3 -4 -8 -10 -11 -5 -3 -10 -1 -10 4 0 6 5 11 10 11
6 0 10 -2 10 -4z m-240 -60 c0 -2 -8 -10 -17 -17 -16 -13 -17 -12 -4 4 13 16
21 21 21 13z m-30 -50 c0 -8 -31 -36 -41 -36 -5 0 -9 5 -9 11 0 5 4 8 9 5 5
-3 14 1 21 9 12 15 20 19 20 11z m-158 -13 c-6 -2 -9 -9 -6 -14 6 -11 -13 -39
-27 -39 -5 0 -3 14 6 30 9 17 21 30 28 29 9 0 9 -2 -1 -6z m70 -27 c4 -17 1
-23 -9 -19 -14 5 -17 25 -6 36 9 10 10 9 15 -17z m728 20 c0 -3 -4 -8 -10 -11
-5 -3 -10 -1 -10 4 0 6 5 11 10 11 6 0 10 -2 10 -4z m-368 -48 c-7 -7 -12 -8
-12 -2 0 14 12 26 19 19 2 -3 -1 -11 -7 -17z m3548 1 c0 -5 -4 -9 -10 -9 -5 0
-10 7 -10 16 0 8 5 12 10 9 6 -3 10 -10 10 -16z m-1003 -72 c43 -86 52 -132
48 -267 -2 -69 -6 -140 -9 -159 -8 -49 -37 -121 -47 -116 -4 3 -11 0 -15 -6
-5 -8 -3 -9 5 -4 9 5 12 2 9 -11 -2 -11 -10 -19 -18 -19 -10 0 -16 -12 -18
-32 -2 -22 -9 -33 -19 -33 -16 0 -13 37 13 139 18 68 12 76 -15 19 -35 -75
-23 -10 15 81 39 92 48 106 67 106 14 0 27 58 20 88 -16 70 -25 97 -31 97 -8
0 1 -101 13 -137 6 -18 3 -23 -9 -23 -13 0 -16 11 -16 58 0 31 -5 77 -11 102
-31 130 -37 179 -22 173 8 -3 25 -28 40 -56z m-2150 21 c-3 -7 -5 -2 -5 12 0
14 2 19 5 13 2 -7 2 -19 0 -25z m2211 -23 c-3 -3 -9 2 -12 12 -6 14 -5 15 5 6
7 -7 10 -15 7 -18z m-2201 -67 c-3 -7 -5 -2 -5 12 0 14 2 19 5 13 2 -7 2 -19
0 -25z m2233 -13 c0 -5 -5 -3 -10 5 -5 8 -10 20 -10 25 0 6 5 3 10 -5 5 -8 10
-19 10 -25z m906 18 c-2 -9 -8 -19 -14 -21 -6 -2 -8 5 -5 17 6 25 22 28 19 4z
m-3606 -43 c0 -5 -2 -10 -4 -10 -3 0 -8 5 -11 10 -3 6 -1 10 4 10 6 0 11 -4
11 -10z m3640 -44 c0 -3 -4 -8 -10 -11 -5 -3 -10 -1 -10 4 0 6 5 11 10 11 6 0
10 -2 10 -4z m-3610 -38 c0 -5 -4 -8 -10 -8 -5 0 -10 10 -10 23 0 18 2 19 10
7 5 -8 10 -18 10 -22z m3673 -32 c-3 -4 -9 -2 -14 5 -13 22 -11 31 5 17 8 -7
12 -17 9 -22z m157 4 c0 -5 -6 -10 -12 -11 -7 0 -2 -5 12 -11 22 -10 23 -12 6
-16 -21 -5 -37 14 -29 35 6 15 23 18 23 3z m-73 -16 c-3 -3 -12 -4 -19 -1 -8
3 -5 6 6 6 11 1 17 -2 13 -5z m163 -14 c0 -12 -40 -34 -48 -26 -3 3 0 6 6 6 7
0 12 7 12 15 0 8 7 15 15 15 8 0 15 -4 15 -10z m310 -15 c0 -8 -9 -15 -20 -15
-22 0 -27 15 -7 23 21 9 27 7 27 -8z m-230 -16 c0 -6 -4 -7 -10 -4 -5 3 -10
11 -10 16 0 6 5 7 10 4 6 -3 10 -11 10 -16z m-315 -29 c-4 -6 1 -7 11 -3 11 4
15 2 12 -7 -7 -21 -21 -21 -46 -2 l-23 18 26 2 c15 1 24 -2 20 -8z m-987 -17
c0 -10 3 -40 7 -68 10 -71 -62 -405 -87 -405 -12 0 -8 38 22 185 13 61 24 135
25 165 2 49 9 89 21 128 5 18 13 15 12 -5z m29 -5 c-3 -8 -6 -5 -6 6 -1 11 2
17 5 13 3 -3 4 -12 1 -19z m868 -36 c-5 -13 -10 -10 -21 17 -18 43 -18 45 7
20 13 -13 18 -27 14 -37z m-948 26 c-3 -8 -6 -5 -6 6 -1 11 2 17 5 13 3 -3 4
-12 1 -19z m1118 -18 c8 -13 -5 -13 -25 0 -13 8 -13 10 2 10 9 0 20 -4 23 -10z
m-1027 -36 c-3 -14 -5 -12 -10 9 -3 19 -2 25 4 19 6 -6 8 -18 6 -28z m-678 11
c10 -13 9 -15 -8 -15 -22 0 -36 13 -25 24 10 10 20 7 33 -9z m597 -60 c-3 -20
-18 -60 -33 -90 -18 -38 -23 -59 -17 -68 7 -8 6 -29 -2 -62 l-12 -50 3 75 c4
105 38 230 62 230 2 0 2 -16 -1 -35z m283 -373 c0 -35 -99 -282 -114 -282 -2
0 7 30 21 68 14 37 37 102 52 144 14 43 29 78 34 78 4 0 7 -4 7 -8z m-3760
-116 c0 -3 -4 -8 -10 -11 -5 -3 -10 -1 -10 4 0 6 5 11 10 11 6 0 10 -2 10 -4z
m667 -28 c-3 -8 -6 -5 -6 6 -1 11 2 17 5 13 3 -3 4 -12 1 -19z m-838 -11 c0
-9 -2 -8 -6 1 -2 6 -10 9 -15 6 -7 -4 -8 -2 -4 5 9 13 26 5 25 -12z m172 -16
c-15 -27 -14 -84 1 -99 9 -9 9 -12 0 -12 -7 0 -12 5 -12 10 0 6 -4 10 -10 10
-5 0 -10 -19 -10 -41 0 -36 -2 -40 -15 -29 -12 10 -15 10 -15 -1 -1 -11 -3
-11 -9 1 -10 17 2 110 20 152 12 29 29 37 30 16 0 -7 5 -2 11 12 6 14 12 20
15 13 2 -7 0 -21 -6 -32z m433 -41 l7 -25 -15 25 c-17 28 -21 50 -7 35 5 -6
12 -21 15 -35z m353 3 c-3 -10 -5 -4 -5 12 0 17 2 24 5 18 2 -7 2 -21 0 -30z
m3579 -12 c-5 -7 -15 -7 -33 2 l-26 12 24 6 c27 7 45 -4 35 -20z m-4527 -23
c0 -31 -1 -31 -10 -10 -5 13 -7 28 -3 33 10 16 14 9 13 -23z m61 6 c0 -8 -4
-14 -9 -14 -4 0 -2 -24 6 -52 18 -72 10 -87 -10 -18 -15 54 -13 115 4 104 5
-3 9 -12 9 -20z m717 -74 c4 -18 2 -22 -6 -15 -6 6 -13 33 -16 60 -4 47 -4 48
6 15 5 -19 13 -46 16 -60z m-157 49 c0 -6 -4 -7 -10 -4 -5 3 -10 11 -10 16 0
6 5 7 10 4 6 -3 10 -11 10 -16z m-330 -19 c0 -5 -5 -10 -11 -10 -5 0 -7 5 -4
10 3 6 8 10 11 10 2 0 4 -4 4 -10z m74 -12 c7 -12 7 -24 -1 -40 -7 -13 -14
-32 -16 -43 -3 -12 -5 -8 -6 12 0 17 4 33 11 35 7 3 5 13 -8 33 -13 20 -14 27
-4 23 7 -2 18 -12 24 -20z m46 18 c0 -3 -4 -8 -10 -11 -5 -3 -10 -1 -10 4 0 6
5 11 10 11 6 0 10 -2 10 -4z m250 -29 c0 -5 -4 -5 -10 -2 -5 3 -10 14 -10 23
0 15 2 15 10 2 5 -8 10 -19 10 -23z m-493 -17 c1 -10 -2 -22 -7 -25 -6 -4 -10
7 -10 26 0 34 12 33 17 -1z m31 10 c-7 -10 -14 -18 -15 -16 -6 6 9 36 18 36 5
0 4 -9 -3 -20z m136 5 c3 -9 0 -15 -9 -15 -8 0 -15 7 -15 15 0 8 4 15 9 15 5
0 11 -7 15 -15z m896 -10 c14 -19 14 -19 -2 -6 -10 7 -18 18 -18 24 0 6 1 8 3
6 1 -2 9 -13 17 -24z m-940 5 c0 -5 -7 -7 -15 -4 -8 4 -15 8 -15 10 0 2 7 4
15 4 8 0 15 -4 15 -10z m800 -87 c0 -42 -3 -74 -6 -70 -10 10 -13 158 -3 151
5 -3 9 -39 9 -81z m2160 72 c0 -5 9 -16 19 -22 53 -33 40 -164 -23 -249 -21
-27 -43 -56 -49 -64 -7 -8 -27 -38 -45 -67 -40 -62 -55 -75 -75 -68 -41 16
-25 128 27 179 17 18 46 55 64 82 28 42 32 54 26 89 -3 22 -12 52 -20 66 -21
42 -9 64 37 64 21 1 39 -4 39 -10z m1227 -17 c-3 -8 -6 -5 -6 6 -1 11 2 17 5
13 3 -3 4 -12 1 -19z m-4257 -8 c0 -5 -4 -10 -10 -10 -5 0 -10 5 -10 10 0 6 5
10 10 10 6 0 10 -4 10 -10z m-46 -45 c-4 -8 -8 -15 -10 -15 -2 0 -4 7 -4 15 0
8 4 15 10 15 5 0 7 -7 4 -15z m4210 -94 c18 -15 22 -51 6 -51 -5 0 -10 7 -10
15 0 8 -12 18 -27 21 -38 9 -47 15 -34 24 17 10 47 6 65 -9z m-4053 -21 c10
-6 19 -20 19 -32 0 -17 -3 -19 -12 -10 -7 7 -20 12 -29 12 -12 0 -16 6 -12 20
6 23 8 24 34 10z m2397 -30 c2 -18 -7 -35 -33 -60 -42 -40 -60 -33 -45 19 19
67 72 94 78 41z m-2498 -53 c0 -7 -11 2 -25 18 -32 39 -32 58 0 22 14 -15 25
-33 25 -40z m98 8 c-3 -3 -21 1 -39 9 -19 9 -24 13 -11 10 14 -3 22 -1 22 7 0
9 5 8 17 -4 9 -9 14 -19 11 -22z m2187 -75 c-3 -5 -1 -10 4 -10 6 0 11 5 11
10 0 6 5 10 12 10 6 0 8 -3 5 -7 -4 -3 -2 -12 4 -19 13 -16 4 -34 -18 -34 -13
0 -13 2 -2 17 12 14 12 16 -1 11 -8 -2 -17 -13 -18 -24 -2 -10 -9 -23 -14 -29
-8 -7 -9 -4 -4 8 3 10 6 32 6 48 0 16 5 29 11 29 5 0 7 -4 4 -10z m1176 -99
c-8 -32 -9 -29 -9 29 0 52 1 59 8 36 5 -16 5 -45 1 -65z m-1261 69 c0 -5 -4
-10 -10 -10 -5 0 -10 5 -10 10 0 6 5 10 10 10 6 0 10 -4 10 -10z m1800 -35
c13 -14 21 -25 18 -25 -2 0 -15 11 -28 25 -13 14 -21 25 -18 25 2 0 15 -11 28
-25z m185 -43 c-2 -3 -12 -1 -22 2 -15 6 -15 9 -3 16 13 8 35 -8 25 -18z
m-240 8 c-3 -5 -11 -10 -16 -10 -6 0 -7 5 -4 10 3 6 11 10 16 10 6 0 7 -4 4
-10z m10 -29 c-3 -6 -11 -8 -17 -5 -6 4 -5 9 3 15 16 10 23 4 14 -10z m-268
-28 c-3 -10 -5 -4 -5 12 0 17 2 24 5 18 2 -7 2 -21 0 -30z m504 22 c12 8 20
-11 13 -29 -9 -23 -19 -20 -56 14 l-33 29 34 -9 c19 -5 37 -7 42 -5z m-162
-29 c33 -35 22 -51 -13 -21 -16 14 -34 25 -40 25 -11 0 13 20 25 20 3 0 16
-11 28 -24z m-134 -6 c17 -19 19 -19 31 -2 12 16 13 16 19 0 4 -10 12 -18 19
-18 6 0 22 -9 35 -19 l25 -19 -30 -26 c-18 -16 -37 -25 -51 -22 -29 4 -29 0 4
-30 33 -31 24 -41 -18 -20 -37 18 -53 21 -44 6 3 -5 1 -10 -5 -10 -7 0 -9 8
-5 19 3 11 0 23 -6 27 -8 5 -9 3 -4 -6 11 -17 -32 -3 -67 23 -32 24 -36 39
-10 33 28 -5 52 -18 48 -25 -2 -3 7 -7 21 -8 l25 -1 -28 17 c-16 10 -36 26
-44 36 -14 17 -13 18 5 13 11 -3 29 -9 40 -13 19 -6 19 -6 3 8 -10 8 -18 24
-18 36 0 27 31 28 55 1z m-3830 -16 c-11 -8 -19 -20 -17 -25 3 -12 -5 -12 -13
0 -6 11 22 41 38 41 7 0 3 -8 -8 -16z m37 -11 c-5 -10 -7 -24 -5 -31 4 -11 2
-11 -16 -1 -19 12 -19 15 -4 31 21 23 36 23 25 1z m48 -43 c0 -5 -2 -10 -4
-10 -3 0 -8 5 -11 10 -3 6 -1 10 4 10 6 0 11 -4 11 -10z m3914 -34 c9 -35 -5
-68 -24 -56 -13 8 -13 13 -2 31 17 27 8 37 -13 15 -9 -9 -22 -16 -28 -16 -13
1 39 50 52 50 5 0 12 -11 15 -24z m-16 -81 c3 -3 0 -11 -7 -18 -10 -9 -14 -8
-22 6 -6 9 -17 17 -24 17 -8 0 -15 4 -15 9 0 9 57 -2 68 -14z m-93 -25 c22
-11 45 -20 52 -20 22 0 14 -20 -13 -32 -23 -11 -28 -9 -45 12 -22 28 -41 60
-36 60 1 0 20 -9 42 -20z m-2795 -140 c0 -5 -5 -10 -11 -10 -5 0 -7 5 -4 10 3
6 8 10 11 10 2 0 4 -4 4 -10z m2158 -32 c20 -20 14 -27 -13 -15 -14 7 -25 15
-25 20 0 11 25 8 38 -5z m192 2 c0 -5 -5 -10 -11 -10 -5 0 -7 5 -4 10 3 6 8
10 11 10 2 0 4 -4 4 -10z m-2260 -30 c0 -5 -5 -10 -11 -10 -5 0 -7 5 -4 10 3
6 8 10 11 10 2 0 4 -4 4 -10z m7 -62 c-3 -7 -5 -2 -5 12 0 14 2 19 5 13 2 -7
2 -19 0 -25z m5 -60 c-5 -7 -12 -24 -15 -38 l-4 -25 -2 26 c0 14 4 30 11 37
16 16 23 15 10 0z m-2 -79 c0 -5 -5 -7 -10 -4 -6 4 -26 -9 -45 -29 -18 -20
-38 -36 -43 -36 -6 0 -35 -28 -67 -61 -40 -43 -60 -58 -67 -51 -7 7 -16 7 -29
-1 -14 -9 -21 -9 -31 1 -6 6 -19 12 -28 12 -13 -1 -12 -3 3 -14 22 -17 22 -38
0 -34 -11 2 -22 20 -29 48 -7 25 -12 37 -13 28 -1 -22 -20 -33 -34 -19 -17 17
-29 13 -19 -6 5 -10 7 -25 5 -33 -3 -10 0 -9 7 3 13 21 55 24 47 3 -3 -7 0
-19 6 -25 18 -18 52 -13 80 13 15 14 29 21 31 17 3 -4 -6 -18 -19 -29 -14 -12
-25 -26 -25 -32 0 -5 -9 -10 -21 -10 -13 0 -18 -4 -13 -12 6 -10 4 -10 -7 0
-7 6 -21 12 -31 12 -13 0 -18 8 -18 25 0 14 -4 25 -10 25 -14 0 -13 -15 4 -55
12 -29 12 -34 0 -39 -24 -9 -44 5 -45 33 -1 17 -3 20 -6 8 -9 -33 -33 -73 -33
-54 0 10 -8 17 -20 17 -11 0 -20 5 -20 12 0 6 -6 3 -14 -7 -10 -14 -24 -19
-50 -17 -32 3 -38 -1 -72 -48 -43 -60 -84 -88 -84 -57 0 6 -11 12 -25 12 -14
0 -27 -6 -30 -12 -2 -7 2 -13 10 -13 8 0 15 -4 15 -10 0 -14 -37 -12 -43 3 -3
7 -6 5 -6 -5 -1 -10 -8 -18 -16 -18 -8 0 -15 -7 -15 -16 0 -8 -4 -13 -9 -9 -6
3 -14 -3 -20 -12 -10 -17 -10 -16 -11 3 0 11 4 24 10 30 17 17 -33 15 -59 -2
-13 -9 -36 -14 -52 -12 -17 3 -30 -1 -33 -9 -3 -7 -15 -13 -26 -13 -14 0 -20
-7 -21 -22 -1 -17 -2 -19 -6 -5 -5 19 -5 19 -27 11 -8 -3 -13 -11 -10 -18 2
-7 -5 -12 -17 -13 -12 -1 -29 -9 -39 -18 -11 -10 -24 -14 -32 -9 -10 6 -11 5
-1 -7 11 -13 4 -17 -52 -28 -36 -7 -68 -17 -71 -22 -3 -5 -19 -16 -35 -25 -24
-12 -34 -13 -45 -3 -12 10 -13 9 -8 -5 3 -9 11 -16 18 -16 6 0 5 -4 -3 -9 -9
-6 -22 -6 -32 0 -25 13 -29 11 -29 -8 0 -10 -8 -27 -17 -38 -13 -16 -15 -17
-10 -2 4 9 2 17 -3 17 -5 0 -10 -10 -12 -22 -2 -14 -6 -19 -10 -12 -5 7 14 44
42 85 28 41 65 97 84 125 18 28 54 67 78 87 52 42 289 158 363 177 28 7 55 16
60 20 6 4 26 11 45 15 19 4 75 21 125 37 49 16 108 33 130 37 107 22 477 137
520 163 34 21 45 22 45 7z m-330 -279 c0 -5 -5 -10 -11 -10 -5 0 -7 5 -4 10 3
6 8 10 11 10 2 0 4 -4 4 -10z m-945 -359 c3 -5 1 -12 -5 -16 -5 -3 -10 1 -10
9 0 18 6 21 15 7z m-219 -146 c-9 -7 -16 -17 -16 -24 0 -6 -2 -11 -4 -11 -2 0
-13 -3 -23 -7 -17 -6 -17 -5 -2 13 9 10 19 27 22 36 4 12 12 15 23 11 16 -6
16 -7 0 -18z m3279 -75 c3 -5 1 -10 -4 -10 -6 0 -11 5 -11 10 0 6 2 10 4 10 3
0 8 -4 11 -10z m-508 -253 c3 -4 -6 -7 -20 -7 -16 0 -39 -12 -57 -30 -17 -17
-27 -30 -23 -30 5 0 14 -13 20 -29 9 -25 8 -31 -5 -36 -9 -3 -13 -3 -9 1 4 4
2 13 -5 21 -6 7 -8 16 -5 20 4 3 3 11 -3 18 -15 18 42 81 74 80 14 -1 29 -5
33 -8z m133 -27 c0 -5 -7 -10 -16 -10 -8 0 -12 5 -9 10 3 6 10 10 16 10 5 0 9
-4 9 -10z m-256 -115 c-29 -22 -42 -17 -15 6 13 11 26 17 29 14 3 -3 -3 -12
-14 -20z"/>
<path d="M1206 4304 c-5 -14 -4 -15 9 -4 17 14 19 20 6 20 -5 0 -12 -7 -15
-16z"/>
<path d="M1130 4140 c-9 -16 -8 -20 5 -20 8 0 15 9 15 20 0 11 -2 20 -5 20 -2
0 -9 -9 -15 -20z"/>
<path d="M840 3905 c0 -8 5 -15 10 -15 6 0 10 7 10 15 0 8 -4 15 -10 15 -5 0
-10 -7 -10 -15z"/>
<path d="M3641 3454 c0 -11 3 -14 6 -6 3 7 2 16 -1 19 -3 4 -6 -2 -5 -13z"/>
<path d="M4246 1841 c-4 -7 -5 -15 -2 -18 9 -9 19 4 14 18 -4 11 -6 11 -12 0z"/>
<path d="M1070 1093 c1 -21 27 -59 36 -51 6 6 -23 68 -31 68 -3 0 -5 -8 -5
-17z"/>
<path d="M1040 1080 c0 -5 5 -10 10 -10 6 0 10 5 10 10 0 6 -4 10 -10 10 -5 0
-10 -4 -10 -10z"/>
<path d="M920 1061 c0 -5 5 -13 10 -16 6 -3 10 -2 10 4 0 5 -4 13 -10 16 -5 3
-10 2 -10 -4z"/>
<path d="M1048 1033 c7 -3 16 -2 19 1 4 3 -2 6 -13 5 -11 0 -14 -3 -6 -6z"/>
<path d="M1024 986 c20 -16 37 -13 35 7 0 9 -2 9 -6 0 -3 -10 -10 -10 -26 -2
-21 10 -21 9 -3 -5z"/>
<path d="M468 773 c7 -3 16 -2 19 1 4 3 -2 6 -13 5 -11 0 -14 -3 -6 -6z"/>
<path d="M2700 4360 c0 -5 5 -10 10 -10 6 0 10 -10 10 -22 0 -12 3 -19 6 -15
9 9 -5 57 -16 57 -6 0 -10 -4 -10 -10z"/>
<path d="M1042 4025 c-7 -14 -12 -29 -12 -33 1 -10 40 38 40 49 0 18 -17 8
-28 -16z"/>
<path d="M1079 3928 c-3 -21 -2 -38 2 -38 13 0 16 14 9 45 l-6 30 -5 -37z"/>
<path d="M950 3904 c0 -8 5 -12 10 -9 6 3 10 10 10 16 0 5 -4 9 -10 9 -5 0
-10 -7 -10 -16z"/>
<path d="M956 3855 c-3 -9 -6 -24 -5 -33 0 -9 5 -4 10 12 9 32 6 48 -5 21z"/>
<path d="M1031 3843 c-8 -16 -17 -36 -22 -45 -17 -32 -9 -39 17 -15 14 13 27
38 29 55 5 39 -7 41 -24 5z"/>
<path d="M477 3853 c-10 -10 -8 -33 2 -33 6 0 9 9 8 20 -1 23 -1 22 -10 13z"/>
<path d="M980 3828 c-1 -10 -3 -22 -4 -28 0 -5 -9 -15 -19 -23 -16 -11 -17
-15 -4 -25 12 -10 17 -7 27 17 6 16 10 40 7 53 -3 16 -5 18 -7 6z"/>
<path d="M375 3812 c-12 -8 -13 -77 -2 -88 7 -7 11 22 7 64 -1 22 14 30 25 12
3 -5 11 -10 17 -10 7 0 6 6 -2 15 -14 16 -29 19 -45 7z"/>
<path d="M518 3800 c-15 -16 -14 -19 11 -29 25 -11 25 -11 6 5 -20 16 -20 16
3 11 13 -3 21 -3 18 0 -3 4 -2 11 4 17 6 8 3 12 -9 13 -10 1 -25 -7 -33 -17z"/>
<path d="M1571 3804 c0 -11 3 -14 6 -6 3 7 2 16 -1 19 -3 4 -6 -2 -5 -13z"/>
<path d="M320 3800 c0 -5 5 -10 11 -10 5 0 7 5 4 10 -3 6 -8 10 -11 10 -2 0
-4 -4 -4 -10z"/>
<path d="M458 3772 c-7 -11 -26 -26 -42 -34 -21 -11 -25 -17 -16 -23 8 -5 16
-1 22 9 5 9 15 16 22 16 13 0 46 31 46 43 0 14 -19 7 -32 -11z"/>
<path d="M1034 3775 c-16 -12 -17 -14 -3 -15 9 0 19 7 23 15 7 19 5 19 -20 0z"/>
<path d="M280 3767 c0 -8 7 -17 15 -21 8 -3 15 -3 15 0 0 3 -7 12 -15 20 -13
13 -15 13 -15 1z"/>
<path d="M7 3763 c-4 -3 -7 -21 -7 -40 0 -23 5 -33 15 -33 8 0 15 -4 15 -10 0
-5 12 -10 26 -10 l26 0 -23 19 c-20 16 -22 22 -12 44 10 21 9 26 -3 31 -20 8
-29 8 -37 -1z m23 -23 c0 -5 -5 -10 -11 -10 -5 0 -7 5 -4 10 3 6 8 10 11 10 2
0 4 -4 4 -10z"/>
<path d="M320 3750 c0 -5 5 -10 10 -10 6 0 10 5 10 10 0 6 -4 10 -10 10 -5 0
-10 -4 -10 -10z"/>
<path d="M233 3735 c-3 -9 -3 -18 -1 -21 3 -3 8 4 11 16 6 23 -1 27 -10 5z"/>
<path d="M587 3729 c-3 -11 -10 -18 -15 -15 -6 3 -12 -1 -16 -9 -4 -10 1 -15
14 -15 18 0 40 44 27 56 -2 3 -7 -5 -10 -17z"/>
<path d="M981 3729 c-7 -12 -14 -55 -16 -95 -2 -40 -6 -78 -9 -83 -4 -5 -3
-12 2 -15 4 -2 13 8 19 25 6 16 7 29 2 29 -12 0 -1 74 17 119 16 39 17 41 6
41 -4 0 -13 -10 -21 -21z"/>
<path d="M892 3720 c-7 -11 -8 -20 -3 -20 9 0 24 30 18 36 -1 2 -8 -6 -15 -16z"/>
<path d="M1033 3728 c2 -7 0 -24 -4 -38 -9 -24 -8 -24 6 -6 17 23 20 56 4 56
-6 0 -9 -6 -6 -12z"/>
<path d="M381 3701 c-10 -7 -8 -10 8 -16 27 -8 36 -2 18 13 -7 6 -18 7 -26 3z"/>
<path d="M267 3693 c-12 -11 -8 -23 8 -23 8 0 15 7 15 15 0 16 -12 20 -23 8z"/>
<path d="M430 3678 c0 -8 3 -17 6 -21 11 -10 34 5 33 22 0 11 -2 12 -6 3 -4
-10 -8 -10 -19 -1 -11 9 -14 8 -14 -3z"/>
<path d="M1288 3678 c20 -25 55 -171 56 -233 0 -11 -3 -42 -8 -68 -7 -46 -7
-48 12 -38 34 18 44 68 27 131 -9 30 -20 74 -25 97 -11 53 -47 123 -61 123 -8
0 -8 -4 -1 -12z"/>
<path d="M915 3660 c3 -5 8 -10 11 -10 2 0 4 5 4 10 0 6 -5 10 -11 10 -5 0 -7
-4 -4 -10z"/>
<path d="M15 3631 c-3 -5 -1 -12 4 -15 5 -3 11 1 15 9 6 16 -9 21 -19 6z"/>
<path d="M321 3625 c0 -11 8 -30 18 -42 27 -32 36 -29 13 5 -10 15 -22 34 -25
42 -4 11 -6 9 -6 -5z"/>
<path d="M917 3633 c-4 -3 -7 -16 -6 -27 0 -19 1 -19 10 3 10 24 8 36 -4 24z"/>
<path d="M870 3605 c0 -8 2 -15 4 -15 2 0 6 7 10 15 3 8 1 15 -4 15 -6 0 -10
-7 -10 -15z"/>
<path d="M440 3590 c-13 -8 -13 -10 2 -10 9 0 20 5 23 10 8 13 -5 13 -25 0z"/>
<path d="M486 3591 c-4 -6 -3 -18 2 -27 6 -11 11 -13 16 -5 4 6 3 18 -2 27 -6
11 -11 13 -16 5z"/>
<path d="M661 3571 c-9 -15 -7 -20 9 -24 21 -5 59 17 48 29 -4 4 -15 1 -25 -7
-15 -12 -16 -12 -10 4 9 23 -10 22 -22 -2z"/>
<path d="M1136 3575 c4 -8 8 -15 10 -15 2 0 4 7 4 15 0 8 -4 15 -10 15 -5 0
-7 -7 -4 -15z"/>
<path d="M560 3543 c-21 -8 -65 -53 -52 -53 7 0 26 13 44 30 34 30 35 33 8 23z"/>
<path d="M1128 3545 c-3 -4 -2 -21 3 -38 12 -41 11 -60 -1 -52 -5 3 -10 -1
-10 -9 0 -24 19 -19 25 7 7 26 -7 102 -17 92z"/>
<path d="M1170 3544 c0 -6 7 -19 15 -30 8 -10 14 -14 14 -9 0 6 -6 19 -14 29
-8 11 -15 15 -15 10z"/>
<path d="M2208 3533 c8 -6 -21 -8 -75 -7 -54 2 -78 0 -63 -5 23 -7 22 -8 -12
-12 -21 -3 -38 -1 -38 3 0 4 -17 8 -37 7 l-38 -1 35 -10 c19 -5 55 -13 80 -17
25 -5 63 -16 85 -26 22 -10 46 -18 53 -16 15 2 15 0 2 -34 -6 -16 -17 -26 -27
-24 -34 3 -53 -1 -53 -12 0 -5 6 -7 13 -4 6 4 3 -1 -7 -9 -11 -9 -36 -16 -57
-16 -63 0 -142 -19 -204 -49 -68 -34 -181 -130 -152 -131 9 0 17 6 17 13 0 6
16 17 35 23 34 11 35 10 19 -7 -15 -17 -13 -19 27 -38 52 -25 60 -26 52 -4 -5
14 -1 15 33 10 21 -4 44 -14 51 -23 6 -9 16 -13 22 -10 6 4 20 2 32 -5 13 -6
24 -7 28 -2 3 5 14 1 24 -9 16 -17 16 -18 -5 -18 -13 0 -30 -5 -38 -10 -11 -7
5 -10 51 -10 36 0 69 -3 72 -6 6 -7 -40 -53 -55 -55 -5 -1 -12 -3 -18 -4 -5
-1 -31 -3 -57 -4 -60 -1 -51 -10 18 -16 82 -7 228 13 274 38 52 29 88 83 81
120 -3 15 -2 26 2 23 9 -5 28 37 35 79 3 16 -1 42 -10 58 -15 30 -5 57 21 57
19 0 76 55 76 72 0 19 -32 48 -52 48 -9 0 -32 7 -52 15 -20 8 -60 17 -89 19
-28 3 -65 7 -82 11 -19 4 -25 3 -17 -2z m-168 -220 c-58 -10 -180 -46 -180
-53 0 -4 -8 -11 -17 -14 -33 -13 19 32 62 53 28 14 59 20 100 19 33 0 49 -3
35 -5z m-75 -95 c0 -24 6 -35 25 -45 l25 -13 -25 1 c-14 0 -47 10 -75 23 l-50
23 40 21 c54 28 60 27 60 -10z m70 22 c4 -6 -5 -10 -19 -10 -14 0 -26 5 -26
10 0 6 9 10 19 10 11 0 23 -4 26 -10z m-199 -55 c-11 -8 -22 -12 -25 -9 -6 6
19 24 34 24 6 -1 1 -7 -9 -15z m514 -54 c0 -5 -9 -7 -20 -4 -11 3 -20 7 -20 9
0 2 9 4 20 4 11 0 20 -4 20 -9z"/>
<path d="M925 3489 c-4 -6 -5 -12 -2 -15 2 -3 7 2 10 11 7 17 1 20 -8 4z"/>
<path d="M516 3468 c-18 -25 -23 -69 -6 -52 10 10 32 74 25 74 -2 0 -11 -10
-19 -22z"/>
<path d="M426 3454 c-9 -24 -7 -28 9 -14 17 14 20 30 6 30 -5 0 -12 -7 -15
-16z"/>
<path d="M1305 3399 c-8 -72 1 -92 10 -22 4 26 9 56 12 66 2 9 0 17 -5 17 -6
0 -13 -27 -17 -61z"/>
<path d="M971 3420 c-7 -49 -7 -90 1 -82 5 5 8 29 5 53 -2 24 -5 37 -6 29z"/>
<path d="M1150 3407 c0 -26 21 -107 30 -112 12 -7 -1 76 -16 105 -10 20 -13
21 -14 7z"/>
<path d="M1120 3399 c0 -5 5 -7 10 -4 6 3 10 8 10 11 0 2 -4 4 -10 4 -5 0 -10
-5 -10 -11z"/>
<path d="M770 3375 c-7 -9 -10 -18 -7 -21 3 -3 10 4 17 15 13 25 8 27 -10 6z"/>
<path d="M377 3373 c-4 -3 -7 -11 -7 -17 0 -6 5 -5 12 2 6 6 9 14 7 17 -3 3
-9 2 -12 -2z"/>
<path d="M571 3373 c3 -20 -2 -24 -16 -13 -12 10 -15 9 -15 -4 0 -9 7 -19 15
-22 8 -4 12 -10 9 -15 -3 -5 2 -9 12 -9 11 0 15 6 11 19 -3 15 1 21 16 23 11
2 23 10 25 18 4 13 3 13 -10 2 -11 -9 -18 -10 -23 -2 -7 12 -26 14 -24 3z"/>
<path d="M666 3364 c-21 -21 -20 -23 7 -16 20 5 21 4 7 -13 -13 -17 -13 -18 0
-10 8 5 21 10 28 11 29 5 42 14 42 30 0 16 -1 16 -18 1 -23 -21 -46 -22 -38
-2 7 20 -8 19 -28 -1z"/>
<path d="M921 3364 c0 -11 3 -14 6 -6 3 7 2 16 -1 19 -3 4 -6 -2 -5 -13z"/>
<path d="M435 3359 c-4 -6 -4 -13 -1 -16 3 -3 1 -14 -5 -24 -7 -15 -6 -17 6
-13 8 3 12 11 8 17 -4 6 0 8 10 4 8 -3 21 0 27 8 9 11 7 16 -9 24 -25 14 -28
14 -36 0z"/>
<path d="M345 3330 c-3 -5 -1 -10 4 -10 6 0 11 5 11 10 0 6 -2 10 -4 10 -3 0
-8 -4 -11 -10z"/>
<path d="M401 3328 c-1 -10 -6 -17 -13 -15 -6 1 -14 -6 -16 -17 -4 -17 -3 -17
18 2 12 11 20 26 17 34 -4 9 -6 7 -6 -4z"/>
<path d="M517 3333 c-4 -3 -7 -11 -7 -17 0 -6 5 -5 12 2 6 6 9 14 7 17 -3 3
-9 2 -12 -2z"/>
<path d="M722 3310 c-12 -12 -22 -26 -22 -32 0 -7 14 1 30 17 17 16 30 30 30
32 0 9 -19 1 -38 -17z"/>
<path d="M780 3290 c-12 -23 -19 -45 -16 -48 3 -3 6 0 6 7 0 8 6 11 16 7 12
-4 15 0 13 17 -2 12 0 28 5 35 4 7 6 16 3 19 -3 3 -15 -14 -27 -37z"/>
<path d="M531 3274 c-7 -19 -17 -34 -22 -34 -5 0 -9 -9 -9 -20 0 -11 5 -20 11
-20 5 0 7 5 4 10 -12 19 6 32 23 18 15 -11 15 -11 4 3 -10 13 -9 19 4 30 13
11 17 10 26 -2 8 -11 9 -10 4 4 -3 10 -6 22 -6 27 0 4 -6 10 -13 13 -9 3 -18
-8 -26 -29z"/>
<path d="M932 3283 c-5 -10 -12 -35 -16 -56 -4 -21 -10 -46 -13 -55 -3 -9 -3
-14 1 -11 7 7 45 139 40 139 -2 0 -7 -8 -12 -17z"/>
<path d="M406 3278 c5 -7 7 -25 6 -40 -1 -15 2 -28 8 -28 17 0 12 67 -6 74
-10 4 -13 2 -8 -6z"/>
<path d="M897 3283 c-4 -3 -7 -11 -7 -17 0 -6 5 -5 12 2 6 6 9 14 7 17 -3 3
-9 2 -12 -2z"/>
<path d="M491 3264 c0 -11 3 -14 6 -6 3 7 2 16 -1 19 -3 4 -6 -2 -5 -13z"/>
<path d="M600 3270 c0 -5 5 -10 11 -10 5 0 7 5 4 10 -3 6 -8 10 -11 10 -2 0
-4 -4 -4 -10z"/>
<path d="M1176 3264 c-5 -14 -4 -15 9 -4 17 14 19 20 6 20 -5 0 -12 -7 -15
-16z"/>
<path d="M640 3248 c0 -4 9 -8 20 -8 11 0 20 4 20 8 0 4 -9 8 -20 8 -11 0 -20
-4 -20 -8z"/>
<path d="M4991 3209 c5 -22 7 -44 4 -50 -4 -5 1 -9 9 -9 11 0 14 9 10 38 -8
50 -12 62 -23 62 -5 0 -5 -16 0 -41z"/>
<path d="M5100 3219 c0 -11 5 -17 10 -14 6 3 10 13 10 21 0 8 -4 14 -10 14 -5
0 -10 -9 -10 -21z"/>
<path d="M662 3201 c1 -19 -4 -37 -10 -39 -7 -2 -12 -8 -12 -13 0 -17 21 2 31
28 6 15 6 31 0 41 -8 13 -9 9 -9 -17z"/>
<path d="M801 3225 c1 -19 18 -51 18 -35 0 8 -4 22 -9 30 -5 8 -9 11 -9 5z"/>
<path d="M360 3206 c0 -8 4 -17 9 -20 5 -4 7 3 4 14 -6 23 -13 26 -13 6z"/>
<path d="M1100 3204 c0 -8 5 -12 10 -9 6 4 8 11 5 16 -9 14 -15 11 -15 -7z"/>
<path d="M1409 3193 c-23 -47 -22 -49 5 -14 29 38 30 41 18 41 -5 0 -15 -12
-23 -27z"/>
<path d="M5190 3209 c0 -5 5 -7 10 -4 6 3 10 8 10 11 0 2 -4 4 -10 4 -5 0 -10
-5 -10 -11z"/>
<path d="M5270 3203 c0 -12 3 -14 8 -7 4 7 18 14 32 17 21 4 20 4 -7 6 -25 1
-33 -3 -33 -16z"/>
<path d="M180 3206 c0 -2 7 -9 15 -16 9 -7 15 -8 15 -2 0 5 -7 12 -15 16 -8 3
-15 4 -15 2z"/>
<path d="M620 3189 c0 -5 5 -7 10 -4 6 3 10 8 10 11 0 2 -4 4 -10 4 -5 0 -10
-5 -10 -11z"/>
<path d="M410 3174 c0 -8 5 -12 10 -9 6 3 10 10 10 16 0 5 -4 9 -10 9 -5 0
-10 -7 -10 -16z"/>
<path d="M855 3153 c-9 -20 -17 -48 -18 -62 -2 -14 -12 -47 -24 -73 -12 -26
-24 -65 -28 -85 l-6 -38 18 25 c9 14 21 28 26 31 6 4 7 14 4 23 -4 9 -2 16 2
16 5 0 12 23 16 50 4 28 13 73 20 100 16 59 11 64 -10 13z"/>
<path d="M5170 3180 c0 -5 7 -10 16 -10 8 0 12 5 9 10 -3 6 -10 10 -16 10 -5
0 -9 -4 -9 -10z"/>
<path d="M503 3165 c-10 -10 -9 -14 2 -18 7 -3 16 1 19 8 7 20 -6 26 -21 10z"/>
<path d="M447 3164 c-6 -10 9 -42 16 -34 3 3 1 14 -3 24 -3 11 -9 15 -13 10z"/>
<path d="M730 3161 c0 -5 5 -13 10 -16 6 -3 10 -2 10 4 0 5 -4 13 -10 16 -5 3
-10 2 -10 -4z"/>
<path d="M1119 3153 c-13 -16 -12 -17 4 -4 9 7 17 15 17 17 0 8 -8 3 -21 -13z"/>
<path d="M597 3133 c-4 -3 -7 -11 -7 -17 0 -6 5 -5 12 2 6 6 9 14 7 17 -3 3
-9 2 -12 -2z"/>
<path d="M1067 3107 c-28 -36 -51 -86 -43 -94 2 -2 8 10 14 26 6 17 17 31 25
31 16 0 41 43 35 60 -2 7 -16 -3 -31 -23z"/>
<path d="M476 3114 c-24 -23 -19 -30 6 -8 17 14 20 15 9 2 -7 -9 -10 -22 -6
-28 11 -18 20 -11 22 20 2 33 -8 38 -31 14z"/>
<path d="M345 3100 c3 -5 8 -10 11 -10 2 0 4 5 4 10 0 6 -5 10 -11 10 -5 0 -7
-4 -4 -10z"/>
<path d="M685 3080 c-4 -12 -5 -24 -2 -27 3 -2 8 5 12 17 4 12 5 24 2 27 -3 2
-8 -5 -12 -17z"/>
<path d="M960 3085 c0 -8 5 -15 10 -15 6 0 10 7 10 15 0 8 -4 15 -10 15 -5 0
-10 -7 -10 -15z"/>
<path d="M563 3055 c-8 -24 -8 -37 -1 -42 6 -3 8 -1 4 5 -3 6 -2 13 4 17 6 4
8 11 5 16 -3 5 0 6 8 3 8 -3 20 2 27 11 7 9 8 15 2 15 -6 0 -17 2 -24 5 -10 4
-18 -6 -25 -30z"/>
<path d="M394 3046 c-3 -21 -4 -39 -1 -42 2 -3 8 11 11 32 4 20 5 38 2 41 -2
3 -8 -11 -12 -31z"/>
<path d="M338 3053 c7 -3 16 -2 19 1 4 3 -2 6 -13 5 -11 0 -14 -3 -6 -6z"/>
<path d="M923 3041 c2 -11 -3 -28 -12 -38 -15 -17 -54 -113 -46 -113 3 0 12
15 21 33 9 17 24 39 34 47 25 20 32 90 9 90 -6 0 -9 -9 -6 -19z"/>
<path d="M625 3041 c-3 -5 -1 -12 5 -16 5 -3 10 1 10 9 0 18 -6 21 -15 7z"/>
<path d="M476 3024 c-9 -8 -16 -23 -16 -31 0 -9 -7 -25 -17 -35 -9 -10 -14
-21 -10 -24 6 -7 38 38 41 59 1 8 8 22 15 31 17 21 7 21 -13 0z"/>
<path d="M4826 3031 c-4 -7 -5 -15 -2 -18 9 -9 19 4 14 18 -4 11 -6 11 -12 0z"/>
<path d="M663 2995 c1 -19 4 -35 8 -35 13 0 16 50 4 60 -10 8 -13 3 -12 -25z"/>
<path d="M1128 3000 c2 -16 6 -30 8 -30 2 0 4 14 4 30 0 17 -4 30 -8 30 -5 0
-7 -13 -4 -30z"/>
<path d="M420 2998 c0 -19 2 -20 10 -8 13 19 13 30 0 30 -5 0 -10 -10 -10 -22z"/>
<path d="M1223 3005 c-3 -9 -3 -18 -1 -21 3 -3 8 4 11 16 6 23 -1 27 -10 5z"/>
<path d="M501 2974 c-12 -15 -21 -32 -20 -38 0 -7 3 -6 6 2 2 6 9 10 14 6 5
-3 9 -2 8 3 -4 21 2 32 19 35 11 2 13 6 5 11 -7 4 -20 -4 -32 -19z"/>
<path d="M575 2969 c-22 -22 -26 -29 -13 -29 9 0 20 5 23 10 4 6 11 8 16 5 5
-4 9 -2 9 4 0 5 3 16 6 25 9 24 -7 18 -41 -15z"/>
<path d="M304 2968 l-19 -23 23 19 c21 18 27 26 19 26 -2 0 -12 -10 -23 -22z"/>
<path d="M391 2974 c0 -11 3 -14 6 -6 3 7 2 16 -1 19 -3 4 -6 -2 -5 -13z"/>
<path d="M997 2983 c-4 -3 -7 -11 -7 -17 0 -6 5 -5 12 2 6 6 9 14 7 17 -3 3
-9 2 -12 -2z"/>
<path d="M1103 2974 c-3 -10 -10 -21 -13 -24 -4 -3 -10 -32 -13 -65 -5 -51 -4
-54 4 -25 6 19 17 55 25 79 14 43 12 74 -3 35z"/>
<path d="M322 2936 c-22 -38 -14 -50 27 -39 12 3 21 1 21 -6 0 -10 -21 -49
-38 -71 -1 -2 -8 2 -13 10 -9 12 -9 10 -3 -5 4 -11 7 -30 7 -42 -1 -31 14 -19
22 17 4 17 10 30 15 30 20 0 20 -23 -1 -60 -12 -22 -20 -42 -18 -45 3 -3 16
16 29 42 18 37 21 50 11 64 -16 27 -15 44 3 30 12 -10 16 -5 26 24 6 20 9 42
6 50 -7 19 -35 19 -42 1 -3 -8 -12 -17 -19 -20 -11 -4 -13 2 -8 24 7 39 0 38
-25 -4z"/>
<path d="M1208 2945 c-3 -14 -1 -25 3 -25 5 0 9 11 9 25 0 14 -2 25 -4 25 -2
0 -6 -11 -8 -25z"/>
<path d="M1266 2917 c-21 -55 -28 -105 -15 -112 5 -4 9 4 9 17 0 13 7 48 15
78 18 67 13 75 -9 17z"/>
<path d="M560 2914 c0 -8 5 -12 10 -9 6 4 8 11 5 16 -9 14 -15 11 -15 -7z"/>
<path d="M125 2909 c-4 -6 -5 -12 -2 -15 2 -3 7 2 10 11 7 17 1 20 -8 4z"/>
<path d="M591 2905 c1 -5 -1 -18 -5 -27 -13 -30 -1 -41 14 -14 11 21 11 29 1
39 -7 6 -11 8 -10 2z"/>
<path d="M75 2890 c3 -5 8 -10 11 -10 2 0 4 5 4 10 0 6 -5 10 -11 10 -5 0 -7
-4 -4 -10z"/>
<path d="M672 2883 c-7 -12 -12 -33 -12 -48 0 -30 -28 -77 -41 -69 -5 3 -9 -2
-9 -10 0 -23 29 -8 45 25 8 15 15 41 15 58 0 16 5 31 12 33 6 2 9 11 6 18 -3
11 -8 10 -16 -7z"/>
<path d="M782 2850 c-11 -27 -17 -52 -13 -54 7 -5 45 93 38 100 -2 3 -13 -18
-25 -46z"/>
<path d="M134 2869 c-19 -22 -19 -22 4 -10 12 6 22 16 22 21 0 15 -5 12 -26
-11z"/>
<path d="M300 2870 c-12 -8 -10 -9 7 -7 12 2 26 6 29 10 11 11 -19 8 -36 -3z"/>
<path d="M465 2869 c-4 -6 -5 -12 -2 -15 2 -3 7 2 10 11 7 17 1 20 -8 4z"/>
<path d="M494 2859 c-3 -5 9 -9 25 -9 17 0 31 2 31 4 0 8 -51 13 -56 5z"/>
<path d="M971 2844 c0 -11 3 -14 6 -6 3 7 2 16 -1 19 -3 4 -6 -2 -5 -13z"/>
<path d="M230 2845 c0 -2 7 -8 15 -15 12 -10 15 -10 15 2 0 8 -7 15 -15 15 -8
0 -15 -1 -15 -2z"/>
<path d="M275 2835 c-3 -8 -7 -21 -9 -29 -5 -15 20 -56 35 -56 15 0 10 30 -6
36 -10 4 -12 15 -8 35 6 30 -4 41 -12 14z"/>
<path d="M876 2815 c-11 -19 -17 -38 -13 -41 7 -7 39 54 35 67 -2 5 -12 -6
-22 -26z"/>
<path d="M923 2808 c-1 -32 1 -38 7 -23 11 26 12 65 2 65 -4 0 -8 -19 -9 -42z"/>
<path d="M52 2804 c-7 -8 -8 -14 -3 -14 10 0 25 19 20 25 -2 1 -10 -3 -17 -11z"/>
<path d="M971 2795 c-6 -16 -9 -41 -5 -55 l6 -25 10 25 c5 13 7 38 6 55 l-4
30 -13 -30z"/>
<path d="M2199 2771 c-84 -55 -316 -280 -361 -350 -41 -66 -38 -123 12 -185
14 -17 15 -15 20 30 6 54 21 66 38 29 15 -33 35 -34 22 0 -13 35 9 80 66 134
71 69 181 212 236 309 10 18 26 44 34 58 9 13 15 24 13 24 -2 0 -38 -22 -80
-49z"/>
<path d="M234 2782 c3 -6 0 -14 -7 -19 -8 -4 -16 -17 -19 -28 -3 -11 -9 -28
-13 -37 -4 -10 -3 -18 3 -18 10 0 23 31 26 60 1 8 7 14 14 13 15 -4 16 24 0
33 -6 4 -8 3 -4 -4z"/>
<path d="M1237 2756 c-4 -10 -7 -25 -6 -34 0 -11 4 -9 10 7 5 13 8 29 6 35 -2
5 -6 2 -10 -8z"/>
<path d="M480 2740 c0 -5 5 -10 10 -10 6 0 10 5 10 10 0 6 -4 10 -10 10 -5 0
-10 -4 -10 -10z"/>
<path d="M511 2734 c0 -11 3 -14 6 -6 3 7 2 16 -1 19 -3 4 -6 -2 -5 -13z"/>
<path d="M4840 2740 c-8 -5 -12 -11 -9 -14 2 -3 11 -1 19 4 8 5 12 11 9 14 -2
3 -11 1 -19 -4z"/>
<path d="M140 2713 c1 -18 18 -35 24 -24 4 6 4 16 1 21 -7 12 -25 13 -25 3z"/>
<path d="M315 2710 c-5 -8 -4 -15 2 -17 7 -3 8 -16 3 -38 -9 -38 7 -48 30 -20
7 8 18 15 25 15 8 0 21 14 29 32 20 38 20 38 1 38 -9 0 -15 -9 -15 -24 0 -32
-20 -45 -21 -14 l0 23 -12 -24 -11 -23 -11 33 c-9 24 -14 29 -20 19z"/>
<path d="M50 2690 c0 -5 4 -10 9 -10 6 0 13 5 16 10 3 6 -1 10 -9 10 -9 0 -16
-4 -16 -10z"/>
<path d="M100 2689 c0 -5 5 -7 10 -4 6 3 10 8 10 11 0 2 -4 4 -10 4 -5 0 -10
-5 -10 -11z"/>
<path d="M630 2681 c0 -6 4 -13 10 -16 6 -3 7 1 4 9 -7 18 -14 21 -14 7z"/>
<path d="M415 2670 c-3 -5 -1 -10 4 -10 6 0 11 5 11 10 0 6 -2 10 -4 10 -3 0
-8 -4 -11 -10z"/>
<path d="M465 2653 c-5 -14 -15 -23 -29 -23 -38 0 -66 -12 -66 -27 0 -13 3
-13 15 -3 8 7 15 9 15 4 0 -4 5 -3 12 4 19 19 28 14 28 -15 1 -27 2 -26 21 12
11 22 18 47 15 55 -3 11 -6 9 -11 -7z"/>
<path d="M2385 2660 c-3 -5 14 -14 37 -20 24 -6 49 -13 56 -15 20 -7 14 3 -9
16 -35 18 -78 28 -84 19z"/>
<path d="M200 2649 c0 -5 5 -7 10 -4 6 3 10 8 10 11 0 2 -4 4 -10 4 -5 0 -10
-5 -10 -11z"/>
<path d="M610 2639 c-7 -11 -10 -23 -7 -25 2 -2 9 7 15 21 14 30 7 33 -8 4z"/>
<path d="M481 2604 c0 -11 3 -14 6 -6 3 7 2 16 -1 19 -3 4 -6 -2 -5 -13z"/>
<path d="M340 2584 c0 -14 4 -23 9 -20 5 3 7 15 4 26 -7 28 -13 25 -13 -6z"/>
<path d="M408 2562 c-1 -4 -20 -18 -40 -31 -21 -12 -38 -29 -38 -37 0 -9 -4
-12 -10 -9 -5 3 -10 1 -10 -4 0 -19 21 -12 52 19 16 17 35 30 43 30 15 0 28
27 15 35 -4 3 -10 2 -12 -3z"/>
<path d="M1108 2553 c7 -3 16 -2 19 1 4 3 -2 6 -13 5 -11 0 -14 -3 -6 -6z"/>
<path d="M2305 2145 c50 -18 53 -18 29 0 -10 8 -30 14 -44 14 -20 0 -17 -3 15
-14z"/>
<path d="M2407 2146 c-23 -18 -22 -23 8 -28 25 -5 32 6 17 29 -5 8 -11 8 -25
-1z"/>
<path d="M2450 2070 c19 -13 30 -13 30 0 0 6 -10 10 -22 10 -19 0 -20 -2 -8
-10z"/>
<path d="M2528 1803 c7 -3 16 -2 19 1 4 3 -2 6 -13 5 -11 0 -14 -3 -6 -6z"/>
<path d="M4035 1697 c-7 -18 9 -47 27 -47 7 0 7 4 0 13 -5 6 -12 21 -14 32 -5
18 -6 19 -13 2z"/>
<path d="M4420 1679 c0 -5 5 -7 10 -4 6 3 10 -2 10 -12 0 -20 35 -47 64 -49
13 -1 7 9 -23 37 -41 39 -61 48 -61 28z"/>
<path d="M3870 1525 c0 -8 5 -15 10 -15 6 0 10 7 10 15 0 8 -4 15 -10 15 -5 0
-10 -7 -10 -15z"/>
<path d="M4158 1514 c12 -8 27 -12 32 -9 6 3 10 1 10 -4 0 -6 5 -11 11 -11 8
0 7 5 -1 15 -7 9 -19 14 -27 11 -7 -3 -13 -1 -13 4 0 6 -8 10 -17 10 -14 0
-13 -3 5 -16z"/>
<path d="M4224 1476 c-9 -9 -4 -15 18 -25 16 -7 31 -11 34 -8 3 3 -4 8 -15 12
-11 3 -21 12 -23 19 -2 11 -5 11 -14 2z"/>
<path d="M4170 1129 c-12 -9 -12 -10 4 -5 12 4 17 2 13 -6 -3 -8 4 -13 18 -13
18 0 20 3 11 18 -12 20 -25 21 -46 6z"/>
<path d="M4877 879 c7 -7 15 -10 18 -7 3 3 -2 9 -12 12 -14 6 -15 5 -6 -5z"/>
<path d="M4940 850 c0 -5 5 -10 10 -10 6 0 10 5 10 10 0 6 -4 10 -10 10 -5 0
-10 -4 -10 -10z"/>
<path d="M5160 795 c0 -8 4 -15 9 -15 5 0 12 -12 15 -26 5 -17 12 -24 21 -20
8 3 17 0 21 -6 5 -7 2 -8 -6 -3 -10 6 -12 3 -8 -13 8 -28 -9 -28 -32 0 -16 20
-19 21 -34 6 -15 -15 -13 -18 24 -39 38 -21 40 -25 35 -61 -3 -22 -10 -48 -15
-59 -6 -10 -8 -19 -5 -19 11 0 35 28 35 42 0 7 7 21 14 31 11 14 22 16 55 11
40 -6 41 -6 41 23 0 22 -13 41 -52 79 -48 46 -99 84 -113 84 -3 0 -5 -7 -5
-15z"/>
<path d="M5085 741 c-3 -6 5 -15 17 -22 20 -11 21 -10 11 3 -7 8 -10 18 -6 21
3 4 1 7 -5 7 -6 0 -13 -4 -17 -9z"/>
<path d="M3590 480 c-11 -7 -12 -12 -3 -21 8 -8 14 -6 22 10 12 22 5 27 -19
11z"/>
<path d="M3546 411 l-30 -36 34 32 c19 18 32 34 29 36 -2 2 -17 -12 -33 -32z"/>
</g>
</svg>
